<?xml version="1.0" encoding="UTF-8" standalone="no"?>
<!DOCTYPE svg PUBLIC "-//W3C//DTD SVG 1.1//EN"
 "http://www.w3.org/Graphics/SVG/1.1/DTD/svg11.dtd">
<!-- Generated by graphviz version 2.50.0 (0)
 -->
<!-- Title: G Pages: 1 -->
<svg width="396pt" height="959pt"
 viewBox="0.00 0.00 297.00 719.00" xmlns="http://www.w3.org/2000/svg" xmlns:xlink="http://www.w3.org/1999/xlink">
<g id="graph0" class="graph" transform="scale(1.33 1.33) rotate(0) translate(4 715)">
<title>G</title>
<polygon fill="white" stroke="transparent" points="-4,4 -4,-715 293,-715 293,4 -4,4"/>
<!-- 2469324187680 -->
<g id="node1" class="node">
<title>2469324187680</title>
<polygon fill="none" stroke="black" points="5,-664.5 5,-710.5 284,-710.5 284,-664.5 5,-664.5"/>
<text text-anchor="middle" x="57" y="-695.3" font-family="Times New Roman,serif" font-size="14.00">conv2d_5_input</text>
<polyline fill="none" stroke="black" points="5,-687.5 109,-687.5 "/>
<text text-anchor="middle" x="57" y="-672.3" font-family="Times New Roman,serif" font-size="14.00">InputLayer</text>
<polyline fill="none" stroke="black" points="109,-664.5 109,-710.5 "/>
<text text-anchor="middle" x="136.5" y="-695.3" font-family="Times New Roman,serif" font-size="14.00">input:</text>
<polyline fill="none" stroke="black" points="109,-687.5 164,-687.5 "/>
<text text-anchor="middle" x="136.5" y="-672.3" font-family="Times New Roman,serif" font-size="14.00">output:</text>
<polyline fill="none" stroke="black" points="164,-664.5 164,-710.5 "/>
<text text-anchor="middle" x="224" y="-695.3" font-family="Times New Roman,serif" font-size="14.00">[(None, 28, 28, 3)]</text>
<polyline fill="none" stroke="black" points="164,-687.5 284,-687.5 "/>
<text text-anchor="middle" x="224" y="-672.3" font-family="Times New Roman,serif" font-size="14.00">[(None, 28, 28, 3)]</text>
</g>
<!-- 2469324001632 -->
<g id="node2" class="node">
<title>2469324001632</title>
<polygon fill="none" stroke="black" points="23,-581.5 23,-627.5 266,-627.5 266,-581.5 23,-581.5"/>
<text text-anchor="middle" x="58" y="-612.3" font-family="Times New Roman,serif" font-size="14.00">conv2d_5</text>
<polyline fill="none" stroke="black" points="23,-604.5 93,-604.5 "/>
<text text-anchor="middle" x="58" y="-589.3" font-family="Times New Roman,serif" font-size="14.00">Conv2D</text>
<polyline fill="none" stroke="black" points="93,-581.5 93,-627.5 "/>
<text text-anchor="middle" x="120.5" y="-612.3" font-family="Times New Roman,serif" font-size="14.00">input:</text>
<polyline fill="none" stroke="black" points="93,-604.5 148,-604.5 "/>
<text text-anchor="middle" x="120.5" y="-589.3" font-family="Times New Roman,serif" font-size="14.00">output:</text>
<polyline fill="none" stroke="black" points="148,-581.5 148,-627.5 "/>
<text text-anchor="middle" x="207" y="-612.3" font-family="Times New Roman,serif" font-size="14.00">(None, 28, 28, 3)</text>
<polyline fill="none" stroke="black" points="148,-604.5 266,-604.5 "/>
<text text-anchor="middle" x="207" y="-589.3" font-family="Times New Roman,serif" font-size="14.00">(None, 26, 26, 32)</text>
</g>
<!-- 2469324187680&#45;&gt;2469324001632 -->
<g id="edge1" class="edge">
<title>2469324187680&#45;&gt;2469324001632</title>
<path fill="none" stroke="black" d="M144.5,-664.37C144.5,-656.15 144.5,-646.66 144.5,-637.73"/>
<polygon fill="black" stroke="black" points="148,-637.61 144.5,-627.61 141,-637.61 148,-637.61"/>
</g>
<!-- 2469324001488 -->
<g id="node3" class="node">
<title>2469324001488</title>
<polygon fill="none" stroke="black" points="0,-498.5 0,-544.5 289,-544.5 289,-498.5 0,-498.5"/>
<text text-anchor="middle" x="58" y="-529.3" font-family="Times New Roman,serif" font-size="14.00">max_pooling2d_4</text>
<polyline fill="none" stroke="black" points="0,-521.5 116,-521.5 "/>
<text text-anchor="middle" x="58" y="-506.3" font-family="Times New Roman,serif" font-size="14.00">MaxPooling2D</text>
<polyline fill="none" stroke="black" points="116,-498.5 116,-544.5 "/>
<text text-anchor="middle" x="143.5" y="-529.3" font-family="Times New Roman,serif" font-size="14.00">input:</text>
<polyline fill="none" stroke="black" points="116,-521.5 171,-521.5 "/>
<text text-anchor="middle" x="143.5" y="-506.3" font-family="Times New Roman,serif" font-size="14.00">output:</text>
<polyline fill="none" stroke="black" points="171,-498.5 171,-544.5 "/>
<text text-anchor="middle" x="230" y="-529.3" font-family="Times New Roman,serif" font-size="14.00">(None, 26, 26, 32)</text>
<polyline fill="none" stroke="black" points="171,-521.5 289,-521.5 "/>
<text text-anchor="middle" x="230" y="-506.3" font-family="Times New Roman,serif" font-size="14.00">(None, 13, 13, 32)</text>
</g>
<!-- 2469324001632&#45;&gt;2469324001488 -->
<g id="edge2" class="edge">
<title>2469324001632&#45;&gt;2469324001488</title>
<path fill="none" stroke="black" d="M144.5,-581.37C144.5,-573.15 144.5,-563.66 144.5,-554.73"/>
<polygon fill="black" stroke="black" points="148,-554.61 144.5,-544.61 141,-554.61 148,-554.61"/>
</g>
<!-- 2469324029040 -->
<g id="node4" class="node">
<title>2469324029040</title>
<polygon fill="none" stroke="black" points="23,-415.5 23,-461.5 266,-461.5 266,-415.5 23,-415.5"/>
<text text-anchor="middle" x="58" y="-446.3" font-family="Times New Roman,serif" font-size="14.00">conv2d_6</text>
<polyline fill="none" stroke="black" points="23,-438.5 93,-438.5 "/>
<text text-anchor="middle" x="58" y="-423.3" font-family="Times New Roman,serif" font-size="14.00">Conv2D</text>
<polyline fill="none" stroke="black" points="93,-415.5 93,-461.5 "/>
<text text-anchor="middle" x="120.5" y="-446.3" font-family="Times New Roman,serif" font-size="14.00">input:</text>
<polyline fill="none" stroke="black" points="93,-438.5 148,-438.5 "/>
<text text-anchor="middle" x="120.5" y="-423.3" font-family="Times New Roman,serif" font-size="14.00">output:</text>
<polyline fill="none" stroke="black" points="148,-415.5 148,-461.5 "/>
<text text-anchor="middle" x="207" y="-446.3" font-family="Times New Roman,serif" font-size="14.00">(None, 13, 13, 32)</text>
<polyline fill="none" stroke="black" points="148,-438.5 266,-438.5 "/>
<text text-anchor="middle" x="207" y="-423.3" font-family="Times New Roman,serif" font-size="14.00">(None, 11, 11, 64)</text>
</g>
<!-- 2469324001488&#45;&gt;2469324029040 -->
<g id="edge3" class="edge">
<title>2469324001488&#45;&gt;2469324029040</title>
<path fill="none" stroke="black" d="M144.5,-498.37C144.5,-490.15 144.5,-480.66 144.5,-471.73"/>
<polygon fill="black" stroke="black" points="148,-471.61 144.5,-461.61 141,-471.61 148,-471.61"/>
</g>
<!-- 2469323799616 -->
<g id="node5" class="node">
<title>2469323799616</title>
<polygon fill="none" stroke="black" points="0,-332.5 0,-378.5 289,-378.5 289,-332.5 0,-332.5"/>
<text text-anchor="middle" x="58" y="-363.3" font-family="Times New Roman,serif" font-size="14.00">max_pooling2d_5</text>
<polyline fill="none" stroke="black" points="0,-355.5 116,-355.5 "/>
<text text-anchor="middle" x="58" y="-340.3" font-family="Times New Roman,serif" font-size="14.00">MaxPooling2D</text>
<polyline fill="none" stroke="black" points="116,-332.5 116,-378.5 "/>
<text text-anchor="middle" x="143.5" y="-363.3" font-family="Times New Roman,serif" font-size="14.00">input:</text>
<polyline fill="none" stroke="black" points="116,-355.5 171,-355.5 "/>
<text text-anchor="middle" x="143.5" y="-340.3" font-family="Times New Roman,serif" font-size="14.00">output:</text>
<polyline fill="none" stroke="black" points="171,-332.5 171,-378.5 "/>
<text text-anchor="middle" x="230" y="-363.3" font-family="Times New Roman,serif" font-size="14.00">(None, 11, 11, 64)</text>
<polyline fill="none" stroke="black" points="171,-355.5 289,-355.5 "/>
<text text-anchor="middle" x="230" y="-340.3" font-family="Times New Roman,serif" font-size="14.00">(None, 5, 5, 64)</text>
</g>
<!-- 2469324029040&#45;&gt;2469323799616 -->
<g id="edge4" class="edge">
<title>2469324029040&#45;&gt;2469323799616</title>
<path fill="none" stroke="black" d="M144.5,-415.37C144.5,-407.15 144.5,-397.66 144.5,-388.73"/>
<polygon fill="black" stroke="black" points="148,-388.61 144.5,-378.61 141,-388.61 148,-388.61"/>
</g>
<!-- 2469323754272 -->
<g id="node6" class="node">
<title>2469323754272</title>
<polygon fill="none" stroke="black" points="30,-249.5 30,-295.5 259,-295.5 259,-249.5 30,-249.5"/>
<text text-anchor="middle" x="65" y="-280.3" font-family="Times New Roman,serif" font-size="14.00">conv2d_7</text>
<polyline fill="none" stroke="black" points="30,-272.5 100,-272.5 "/>
<text text-anchor="middle" x="65" y="-257.3" font-family="Times New Roman,serif" font-size="14.00">Conv2D</text>
<polyline fill="none" stroke="black" points="100,-249.5 100,-295.5 "/>
<text text-anchor="middle" x="127.5" y="-280.3" font-family="Times New Roman,serif" font-size="14.00">input:</text>
<polyline fill="none" stroke="black" points="100,-272.5 155,-272.5 "/>
<text text-anchor="middle" x="127.5" y="-257.3" font-family="Times New Roman,serif" font-size="14.00">output:</text>
<polyline fill="none" stroke="black" points="155,-249.5 155,-295.5 "/>
<text text-anchor="middle" x="207" y="-280.3" font-family="Times New Roman,serif" font-size="14.00">(None, 5, 5, 64)</text>
<polyline fill="none" stroke="black" points="155,-272.5 259,-272.5 "/>
<text text-anchor="middle" x="207" y="-257.3" font-family="Times New Roman,serif" font-size="14.00">(None, 3, 3, 64)</text>
</g>
<!-- 2469323799616&#45;&gt;2469323754272 -->
<g id="edge5" class="edge">
<title>2469323799616&#45;&gt;2469323754272</title>
<path fill="none" stroke="black" d="M144.5,-332.37C144.5,-324.15 144.5,-314.66 144.5,-305.73"/>
<polygon fill="black" stroke="black" points="148,-305.61 144.5,-295.61 141,-305.61 148,-305.61"/>
</g>
<!-- 2469324001344 -->
<g id="node7" class="node">
<title>2469324001344</title>
<polygon fill="none" stroke="black" points="32.5,-166.5 32.5,-212.5 256.5,-212.5 256.5,-166.5 32.5,-166.5"/>
<text text-anchor="middle" x="65" y="-197.3" font-family="Times New Roman,serif" font-size="14.00">flatten_2</text>
<polyline fill="none" stroke="black" points="32.5,-189.5 97.5,-189.5 "/>
<text text-anchor="middle" x="65" y="-174.3" font-family="Times New Roman,serif" font-size="14.00">Flatten</text>
<polyline fill="none" stroke="black" points="97.5,-166.5 97.5,-212.5 "/>
<text text-anchor="middle" x="125" y="-197.3" font-family="Times New Roman,serif" font-size="14.00">input:</text>
<polyline fill="none" stroke="black" points="97.5,-189.5 152.5,-189.5 "/>
<text text-anchor="middle" x="125" y="-174.3" font-family="Times New Roman,serif" font-size="14.00">output:</text>
<polyline fill="none" stroke="black" points="152.5,-166.5 152.5,-212.5 "/>
<text text-anchor="middle" x="204.5" y="-197.3" font-family="Times New Roman,serif" font-size="14.00">(None, 3, 3, 64)</text>
<polyline fill="none" stroke="black" points="152.5,-189.5 256.5,-189.5 "/>
<text text-anchor="middle" x="204.5" y="-174.3" font-family="Times New Roman,serif" font-size="14.00">(None, 576)</text>
</g>
<!-- 2469323754272&#45;&gt;2469324001344 -->
<g id="edge6" class="edge">
<title>2469323754272&#45;&gt;2469324001344</title>
<path fill="none" stroke="black" d="M144.5,-249.37C144.5,-241.15 144.5,-231.66 144.5,-222.73"/>
<polygon fill="black" stroke="black" points="148,-222.61 144.5,-212.61 141,-222.61 148,-222.61"/>
</g>
<!-- 2469323329488 -->
<g id="node8" class="node">
<title>2469323329488</title>
<polygon fill="none" stroke="black" points="45,-83.5 45,-129.5 244,-129.5 244,-83.5 45,-83.5"/>
<text text-anchor="middle" x="75.5" y="-114.3" font-family="Times New Roman,serif" font-size="14.00">dense_5</text>
<polyline fill="none" stroke="black" points="45,-106.5 106,-106.5 "/>
<text text-anchor="middle" x="75.5" y="-91.3" font-family="Times New Roman,serif" font-size="14.00">Dense</text>
<polyline fill="none" stroke="black" points="106,-83.5 106,-129.5 "/>
<text text-anchor="middle" x="133.5" y="-114.3" font-family="Times New Roman,serif" font-size="14.00">input:</text>
<polyline fill="none" stroke="black" points="106,-106.5 161,-106.5 "/>
<text text-anchor="middle" x="133.5" y="-91.3" font-family="Times New Roman,serif" font-size="14.00">output:</text>
<polyline fill="none" stroke="black" points="161,-83.5 161,-129.5 "/>
<text text-anchor="middle" x="202.5" y="-114.3" font-family="Times New Roman,serif" font-size="14.00">(None, 576)</text>
<polyline fill="none" stroke="black" points="161,-106.5 244,-106.5 "/>
<text text-anchor="middle" x="202.5" y="-91.3" font-family="Times New Roman,serif" font-size="14.00">(None, 64)</text>
</g>
<!-- 2469324001344&#45;&gt;2469323329488 -->
<g id="edge7" class="edge">
<title>2469324001344&#45;&gt;2469323329488</title>
<path fill="none" stroke="black" d="M144.5,-166.37C144.5,-158.15 144.5,-148.66 144.5,-139.73"/>
<polygon fill="black" stroke="black" points="148,-139.61 144.5,-129.61 141,-139.61 148,-139.61"/>
</g>
<!-- 2469323444032 -->
<g id="node9" class="node">
<title>2469323444032</title>
<polygon fill="none" stroke="black" points="48.5,-0.5 48.5,-46.5 240.5,-46.5 240.5,-0.5 48.5,-0.5"/>
<text text-anchor="middle" x="79" y="-31.3" font-family="Times New Roman,serif" font-size="14.00">dense_6</text>
<polyline fill="none" stroke="black" points="48.5,-23.5 109.5,-23.5 "/>
<text text-anchor="middle" x="79" y="-8.3" font-family="Times New Roman,serif" font-size="14.00">Dense</text>
<polyline fill="none" stroke="black" points="109.5,-0.5 109.5,-46.5 "/>
<text text-anchor="middle" x="137" y="-31.3" font-family="Times New Roman,serif" font-size="14.00">input:</text>
<polyline fill="none" stroke="black" points="109.5,-23.5 164.5,-23.5 "/>
<text text-anchor="middle" x="137" y="-8.3" font-family="Times New Roman,serif" font-size="14.00">output:</text>
<polyline fill="none" stroke="black" points="164.5,-0.5 164.5,-46.5 "/>
<text text-anchor="middle" x="202.5" y="-31.3" font-family="Times New Roman,serif" font-size="14.00">(None, 64)</text>
<polyline fill="none" stroke="black" points="164.5,-23.5 240.5,-23.5 "/>
<text text-anchor="middle" x="202.5" y="-8.3" font-family="Times New Roman,serif" font-size="14.00">(None, 21)</text>
</g>
<!-- 2469323329488&#45;&gt;2469323444032 -->
<g id="edge8" class="edge">
<title>2469323329488&#45;&gt;2469323444032</title>
<path fill="none" stroke="black" d="M144.5,-83.37C144.5,-75.15 144.5,-65.66 144.5,-56.73"/>
<polygon fill="black" stroke="black" points="148,-56.61 144.5,-46.61 141,-56.61 148,-56.61"/>
</g>
</g>
</svg>
